<?xml version="1.0"?>
<svg xmlns="http://www.w3.org/2000/svg" viewBox="0 0 64 64" width="512" height="512"><g id="Design"><path d="M39,2H3A1,1,0,0,0,2,3V15a1,1,0,0,0,1,1H39a1,1,0,0,0,1-1V3A1,1,0,0,0,39,2ZM38,14H4V4H6V8H8V4h2V8h2V4h2V8h2V4h2V8h2V4h2V8h2V4h2V8h2V4h2V8h2V4h2V8h2V4h2Z"/><path d="M31,34H21a1,1,0,0,1-1-1V25a1,1,0,0,1,1-1H31a1,1,0,0,1,1,1v8A1,1,0,0,1,31,34Zm-9-2h8V26H22Z"/><path d="M31,47H21a1,1,0,0,1-1-1V38a1,1,0,0,1,1-1H31a1,1,0,0,1,1,1v8A1,1,0,0,1,31,47Zm-9-2h8V39H22Z"/><path d="M31,52H21a1,1,0,0,1,0-2H31a1,1,0,0,1,0,2Z"/><path d="M31,56H21a1,1,0,0,1,0-2H31a1,1,0,0,1,0,2Z"/><path d="M7,18a5.006,5.006,0,0,0-5,5V54a.993.993,0,0,0,.132.5l4,7a1,1,0,0,0,1.736,0l4-7A.993.993,0,0,0,12,54V23A5.006,5.006,0,0,0,7,18Zm3,10H4V26h6ZM4,30H6V49.586l-2,2ZM7,51.414l2.753,2.753-.694,1.214a6.128,6.128,0,0,0-4.118,0l-.694-1.214Zm1-1.828V30h2V51.586ZM4,23a3,3,0,0,1,6,0v1H4ZM7,58.984,5.95,57.147a4.129,4.129,0,0,1,2.1,0Z"/><path d="M47,22a3,3,0,1,0-3-3A3,3,0,0,0,47,22Zm0-4a1,1,0,1,1-1,1A1,1,0,0,1,47,18Z"/><path d="M61,18H53.92A7.008,7.008,0,0,0,50,12.685V5a3.015,3.015,0,0,0-3-3,3,3,0,0,0-3,3v7.685A7.008,7.008,0,0,0,40.08,18H15a1,1,0,0,0-1,1V61a1,1,0,0,0,1,1H61a1,1,0,0,0,1-1V19A1,1,0,0,0,61,18ZM56.711,49.17h0l-.006,0a1,1,0,0,1-.755-.1.983.983,0,0,1-.459-.608L49.351,25.585a6.98,6.98,0,0,0,1.807-.967l6.255,23.327A1.009,1.009,0,0,1,56.711,49.17ZM47,33a1,1,0,0,0-1,1v.94a15.911,15.911,0,0,1-1.735-.2l2.348-8.758c.129.007.256.02.387.02s.258-.013.387-.02l2.348,8.758a15.911,15.911,0,0,1-1.735.2V34A1,1,0,0,0,47,33ZM46,5a1,1,0,0,1,1-1,.974.974,0,0,1,.712.306A.957.957,0,0,1,48,5v7.08a6.29,6.29,0,0,0-2,0Zm1,9a5,5,0,1,1-5,5A5.006,5.006,0,0,1,47,14ZM42.842,24.618a6.98,6.98,0,0,0,1.807.967L38.513,48.467a1,1,0,0,1-1.21.708l-.009,0h0a1.009,1.009,0,0,1-.707-1.221ZM60,60H16V20H40.08a6.951,6.951,0,0,0,1.141,2.943L34.653,47.435a3,3,0,0,0,1.206,3.228l-.825,3.078a1,1,0,0,0,.707,1.225A1.013,1.013,0,0,0,36,55a1,1,0,0,0,.966-.741l.826-3.083a2.925,2.925,0,0,0,2.654-2.2L43.738,36.7A17.905,17.905,0,0,0,46,36.971V38a1,1,0,0,0,2,0V36.971a17.905,17.905,0,0,0,2.262-.269l3.291,12.271a2.921,2.921,0,0,0,2.655,2.2l.826,3.084A1,1,0,0,0,58,55a1.013,1.013,0,0,0,.259-.034,1,1,0,0,0,.707-1.225l-.825-3.077a3.008,3.008,0,0,0,1.2-3.233L52.779,22.943A6.951,6.951,0,0,0,53.92,20H60Z"/></g></svg>
