<svg id="Layer_1" enable-background="new 0 0 512 512" height="512" viewBox="0 0 512 512" width="512" xmlns="http://www.w3.org/2000/svg"><g><path d="m463.981 217.63c4.648 3.402 10.262 4.564 15.506 3.742 5.245-.851 10.206-3.714 13.58-8.363 3.373-4.677 4.564-10.262 3.713-15.535-.851-5.244-3.685-10.177-8.363-13.579l-96.103-69.88c-3.345-2.438-4.11-7.116-1.672-10.461s7.116-4.082 10.461-1.672l96.102 69.908c7.995 5.783 12.899 14.288 14.345 23.359 1.445 9.044-.567 18.654-6.35 26.648-5.811 7.995-14.317 12.871-23.359 14.316-9.016 1.446-18.569-.539-26.563-6.265v269.825c0 4.139-3.345 7.512-7.484 7.512-127.854 0-255.735 0-383.589 0-4.139 0-7.512-3.373-7.512-7.512v-269.796c-7.881 5.499-17.01 7.768-26.535 6.237-8.929-1.417-18.682-6.974-23.614-14.685-5.585-7.938-7.512-17.378-6.095-26.28 1.446-9.015 6.917-18.597 14.657-23.615l41.588-30.248v-87.003h-5.443c-4.139 0-7.512-3.345-7.512-7.484v-34.472c0-4.139 3.373-7.512 7.512-7.512h98.456c4.139 0 7.513 3.373 7.513 7.512v34.472c0 4.139-3.373 7.484-7.513 7.484h-5.471v23.36l90.745-65.996c6.464-4.678 13.948-6.889 21.376-6.804 7.625.085 15.053 2.58 21.177 7.172l96.102 69.88c3.345 2.438 4.082 7.116 1.672 10.461-2.438 3.345-7.115 4.111-10.461 1.672l-96.131-69.88c-3.742-2.778-7.796-4.309-12.501-4.366-4.281-.028-8.675 1.248-12.445 3.997-73.399 53.382-146.794 106.763-220.19 160.116-4.678 3.402-7.512 8.335-8.363 13.579-.851 5.273.34 10.858 3.713 15.507 3.402 4.536 7.966 7.484 13.58 8.392 5.245.822 10.829-.34 15.506-3.714 67.811-49.327 135.649-98.654 203.46-147.981 2.552-1.928 6.18-2.069 8.902-.085 67.868 49.354 135.735 98.71 203.603 148.037zm-207.997 111.411c1.531-17.888 9.412-33.962 21.404-45.954 13.409-13.381 31.892-21.687 52.331-21.687 20.44 0 38.923 8.306 52.332 21.687 11.963 11.992 19.873 28.065 21.375 45.954 3.657 1.162 6.888 3.203 9.525 5.84 4.309 4.281 6.974 10.206 6.974 16.754 0 6.52-2.665 12.445-6.974 16.725-2.751 2.75-6.152 4.848-9.951 5.982l-5.103 43.373c-.482 4.111-4.168 7.06-8.278 6.606-4.11-.482-7.087-4.196-6.605-8.307l4.763-40.681h-27.697v14.259c0 5.642-2.296 10.745-6.01 14.458-3.685 3.714-8.816 6.01-14.457 6.01h-19.448c-5.613 0-10.744-2.296-14.458-6.01-3.686-3.714-6.01-8.817-6.01-14.458v-14.259h-28.066l13.721 116.826h88.732l4.961-42.382c.481-4.111 4.195-7.059 8.306-6.605 4.111.481 7.059 4.195 6.577 8.306l-4.763 40.681h51.113v-273.225l-184.294-134.005-184.267 134.005v273.227h27.64l8.958-75.012c.766-6.35 3.487-12.19 7.683-16.385 4.195-4.196 9.78-6.804 16.3-6.804h8.42v-186.621c0-6.548 2.665-12.473 6.945-16.754 4.309-4.309 10.234-6.974 16.754-6.974 6.548 0 12.474 2.665 16.754 6.974 4.309 4.281 6.974 10.205 6.974 16.754v80.086c0 4.139-3.374 7.484-7.512 7.484-4.139 0-7.513-3.345-7.513-7.484v-80.086c0-2.409-.963-4.564-2.551-6.151-1.587-1.588-3.771-2.58-6.152-2.58s-4.564.992-6.124 2.58c-1.587 1.587-2.579 3.77-2.579 6.151v186.621h17.406v-72.573c0-4.139 3.374-7.513 7.513-7.513 4.138 0 7.512 3.374 7.512 7.513v72.573h8.392c6.548 0 12.105 2.608 16.3 6.804 4.224 4.195 6.946 10.035 7.711 16.385 2.977 25.004 5.953 50.008 8.93 75.012h40.794l-13.834-117.818c-3.799-1.134-7.229-3.232-9.979-5.982-4.28-4.281-6.945-10.206-6.945-16.725 0-6.549 2.665-12.474 6.945-16.754 2.637-2.638 5.897-4.679 9.525-5.841zm132.248-1.134c-1.672-13.296-7.796-25.203-16.811-34.217-10.659-10.659-25.4-17.264-41.701-17.264-16.3 0-31.042 6.605-41.729 17.264-8.987 9.015-15.11 20.921-16.783 34.217zm-246.04-288.62v-19.476h-83.46v19.476zm-12.955 14.996h-57.52v76.089l57.52-41.814zm230.845 288.62v17.435h36.117c2.409 0 4.564-.992 6.152-2.58 1.587-1.587 2.579-3.742 2.579-6.123 0-2.41-.992-4.565-2.579-6.152-1.588-1.588-3.743-2.58-6.152-2.58zm-60.383 17.435v-17.435h-36.485c-2.381 0-4.565.992-6.124 2.58-1.587 1.587-2.58 3.742-2.58 6.152 0 2.381.992 4.536 2.58 6.123 1.559 1.587 3.742 2.58 6.124 2.58zm45.386 29.256v-21.771-24.919h-30.362v24.919 21.771c0 1.475.595 2.864 1.588 3.856.992.992 2.381 1.616 3.855 1.616h19.448c1.502 0 2.863-.624 3.855-1.616s1.616-2.382 1.616-3.856zm-169.243 80.483c0-4.139 3.345-7.484 7.484-7.484s7.513 3.346 7.513 7.484v22.084h23.558l-5.216-43.6h-89.526l-5.188 43.6h23.558v-10.177c0-4.168 3.345-7.513 7.484-7.513s7.512 3.345 7.512 7.513v10.177h22.821zm-54.402-36.514h85.954l-1.729-14.656c-.369-3.005-1.587-5.698-3.43-7.542-1.475-1.474-3.431-2.409-5.698-2.409h-15.904-32.403-15.933c-2.268 0-4.195.936-5.698 2.409-1.843 1.843-3.033 4.536-3.402 7.542z"/></g></svg>