<svg id="Capa_1" enable-background="new 0 0 512 512" height="512" viewBox="0 0 512 512" width="512" xmlns="http://www.w3.org/2000/svg"><g><g><g><path d="m495.899 86.612h-21.612c-4.372-15.751-18.807-27.358-35.915-27.429v-23.283c0-19.795-16.103-35.9-35.898-35.9h-323.203c-19.795 0-35.899 16.104-35.899 35.9v23.283c-20.566.085-37.271 16.842-37.271 37.429s16.705 37.344 37.271 37.428v15.383c0 19.795 16.104 35.9 35.898 35.9h73.23c.078 0 .155-.001.232-.003 5.834 4.658 13.224 7.445 21.253 7.445 5.495 0 10.69-1.306 15.293-3.623 3.915 14.528 17.205 25.252 32.952 25.252 17.099 0 31.3-12.643 33.749-29.071h31.815c5.522 0 10-4.477 10-10s-4.478-10-10-10h-31.441v-145.323h146.122c8.767 0 15.898 7.133 15.898 15.9v113.523c0 8.767-7.132 15.9-15.898 15.9h-27.326c-5.522 0-10 4.477-10 10s4.478 10 10 10h27.326c19.795 0 35.898-16.104 35.898-35.9v-15.383c17.108-.07 31.543-11.677 35.915-27.428h11.612v85.427c0 14.884-12.108 26.994-26.991 26.994h-218.822c-5.522 0-10 4.477-10 10v50.832h-13.04c-4.385 0-8.258 2.856-9.554 7.045l-16.314 52.754c-.215.651-.366 1.332-.443 2.035-.001.01-.003.021-.004.031-.004.036-.008.071-.011.107-.006.061-.011.123-.016.184-.001.016-.002.032-.003.047-.005.073-.01.147-.014.22v.004c-.01.199-.015.397-.013.596v119.697c0 27.247 22.166 49.415 49.412 49.415s49.412-22.168 49.412-49.415v-119.697c.002-.198-.003-.397-.013-.596 0-.001 0-.002 0-.003-.004-.075-.009-.149-.014-.223-.001-.015-.002-.03-.003-.045-.005-.062-.01-.123-.016-.185-.003-.036-.007-.072-.011-.107-.001-.011-.003-.021-.004-.031-.077-.703-.228-1.384-.443-2.035l-16.314-52.754c-1.296-4.189-5.169-7.045-9.554-7.045h-13.04v-40.832h208.821c25.911 0 46.991-21.081 46.991-46.994v-95.426c0-5.523-4.477-10-10-10zm-469.798 10c0-9.559 7.733-17.345 17.272-17.429v34.858c-9.539-.085-17.272-7.871-17.272-17.429zm37.271 52.811v-3.401c4.306 1.965 9.088 3.061 14.122 3.061 12.953 0 24.243-7.254 30.021-17.914 5.275 3.346 11.527 5.285 18.224 5.285 5.034 0 9.816-1.096 14.123-3.062v25.249c0 2.286.227 4.52.657 6.681h-61.248c-8.767.001-15.899-7.132-15.899-15.899zm172.98 30.847c0 7.788-6.336 14.124-14.123 14.124s-14.122-6.336-14.122-14.124v-69.058c0-5.523-4.478-10-10-10s-10 4.477-10 10v47.43c0 7.788-6.336 14.124-14.123 14.124s-14.122-6.336-14.122-14.124v-56.312c0-5.523-4.478-10-10-10-5.523 0-10 4.477-10 10 0 7.788-6.336 14.124-14.123 14.124s-14.122-6.336-14.122-14.124c0-5.523-4.478-10-10-10s-10 4.477-10 10v12.629c0 7.788-6.336 14.124-14.123 14.124s-14.122-6.336-14.122-14.124v-79.059c0-8.767 7.132-15.9 15.898-15.9h157.082zm202.021-66.23v-34.857c9.538.084 17.272 7.871 17.272 17.429s-7.734 17.344-17.272 17.428zm-168.874 348.545c0 16.22-13.194 29.415-29.412 29.415s-29.412-13.195-29.412-29.415v-109.779h58.824zm-3.559-129.779h-51.705l10.188-32.942h31.33z"/></g><g><g><path d="m332.22 185.32c-7.849.135-12.759-9.096-8.32-15.55 4.24-6.583 14.696-5.577 17.551 1.73 2.842 6.278-2.343 14.035-9.231 13.82z"/></g></g></g><g><path d="m240.087 470.353c-5.522 0-10-4.477-10-10v-18.968c0-5.523 4.478-10 10-10 5.523 0 10 4.477 10 10v18.968c0 5.522-4.478 10-10 10z"/></g></g></svg>