<svg id="icons" enable-background="new 0 0 64 64" height="512" viewBox="0 0 64 64" width="512" xmlns="http://www.w3.org/2000/svg"><g><g><path d="m29 36.002h-21.998c-2.206 0-4-1.794-4-4v-8.001c0-2.206 1.794-4 4-4h21.998c.553 0 1 .447 1 1s-.447 1-1 1h-21.998c-1.103 0-2 .897-2 2v8.001c0 1.103.897 2 2 2h21.998c.553 0 1 .447 1 1s-.447 1-1 1z"/></g><g><path d="m29 36.002c-.553 0-1-.447-1-1v-14.001c0-.553.447-1 1-1s1 .447 1 1v14.001c0 .553-.447 1-1 1z"/></g><g><path d="m29 36.002c-.419 0-.809-.265-.948-.684-.175-.524.108-1.091.632-1.265l6.002-2.001c.527-.176 1.09.108 1.265.632s-.108 1.091-.632 1.265l-6.002 2.001c-.106.035-.213.052-.317.052z"/></g><g><path d="m35.002 24c-.104 0-.211-.017-.316-.052l-6.002-2.001c-.523-.174-.807-.74-.632-1.265.175-.523.735-.808 1.265-.632l6.002 2.001c.523.174.807.74.632 1.265-.14.419-.53.684-.949.684z"/></g><g><path d="m35.002 34.001c-.553 0-1-.447-1-1v-10.001c0-.553.447-1 1-1s1 .447 1 1v10.001c0 .553-.447 1-1 1z"/></g><g><path d="m39 32.003h-3.998c-.553 0-1-.447-1-1v-6.002c0-.553.447-1 1-1h3.998c.553 0 1 .447 1 1v6.002c0 .553-.447 1-1 1zm-2.998-2h1.998v-4.002h-1.998z"/></g><g><path d="m49.006 29.002h-10.006c-.553 0-1-.447-1-1s.447-1 1-1h10.006c.553 0 1 .447 1 1s-.447 1-1 1z"/></g><g><path d="m13.998 50h-6.996c-.29 0-.565-.126-.756-.345-.189-.219-.275-.51-.234-.797l2.002-13.998c.07-.492.492-.858.99-.858h6.996c.29 0 .565.126.756.345.189.219.275.51.234.797l-2.002 13.998c-.07.492-.492.858-.99.858zm-5.843-2h4.976l1.716-11.998h-4.976z"/></g><g><path d="m17.998 59.001h-13.998c-.553 0-1-.447-1-1v-9.001c0-.553.447-1 1-1h13.998c.553 0 1 .447 1 1v9.001c0 .553-.447 1-1 1zm-12.998-2h11.998v-7.001h-11.998z"/></g><g><path d="m20 39.002c-.553 0-1-.447-1-1v-3c0-.553.447-1 1-1s1 .447 1 1v3c0 .553-.447 1-1 1z"/></g><g><path d="m20 39.002h-4.375c-.553 0-1-.447-1-1s.447-1 1-1h4.375c.553 0 1 .447 1 1s-.447 1-1 1z"/></g><g><path d="m17.998 53.002h-13.998c-.553 0-1-.447-1-1s.447-1 1-1h13.998c.553 0 1 .447 1 1s-.447 1-1 1z"/></g><g><path d="m29 31.003h-9.99c-.553 0-1-.447-1-1v-4c0-.553.447-1 1-1h9.99c.553 0 1 .447 1 1v4c0 .553-.447 1-1 1zm-8.99-2h7.99v-2h-7.99z"/></g><g><path d="m56 64h-14.002c-.553 0-1-.447-1-1v-62c0-.553.447-1 1-1h14.002c.553 0 1 .447 1 1v62c0 .553-.447 1-1 1zm-13.002-2h12.002v-60h-12.002z"/></g><g><path d="m60 64h-4c-.553 0-1-.447-1-1v-62c0-.553.447-1 1-1h4c.553 0 1 .447 1 1v62c0 .553-.447 1-1 1zm-3-2h2v-60h-2z"/></g><g><path d="m50.996 21.005c-.553 0-1-.447-1-1v-19.005c0-.553.447-1 1-1s1 .447 1 1v19.005c0 .553-.447 1-1 1z"/></g><g><path d="m45.994 64c-.553 0-1-.447-1-1v-18.005c0-.553.447-1 1-1s1 .447 1 1v18.005c0 .553-.447 1-1 1z"/></g><g><path d="m45.994 45.995c-.553 0-1-.447-1-1 0-1.654-1.346-3-3-3-.553 0-1-.447-1-1s.447-1 1-1c2.757 0 5 2.243 5 5 0 .553-.447 1-1 1z"/></g></g></svg>