<svg width="16" height="16" viewBox="0 0 16 16" fill="none" xmlns="http://www.w3.org/2000/svg">
<path fill-rule="evenodd" clip-rule="evenodd" d="M7.99992 1.33325C5.41992 1.33325 3.33325 3.41992 3.33325 5.99992C3.33325 9.49992 7.99992 14.6666 7.99992 14.6666C7.99992 14.6666 12.6666 9.49992 12.6666 5.99992C12.6666 3.41992 10.5799 1.33325 7.99992 1.33325ZM4.66659 5.99992C4.66659 4.15992 6.15992 2.66659 7.99992 2.66659C9.83992 2.66659 11.3333 4.15992 11.3333 5.99992C11.3333 7.91992 9.41325 10.7933 7.99992 12.5866C6.61325 10.8066 4.66659 7.89992 4.66659 5.99992ZM6.33325 5.99992C6.33325 5.07944 7.07944 4.33325 7.99992 4.33325C8.59536 4.33325 9.14557 4.65092 9.44329 5.16659C9.74102 5.68225 9.74102 6.31758 9.44329 6.83325C9.14557 7.34892 8.59536 7.66658 7.99992 7.66658C7.07944 7.66658 6.33325 6.92039 6.33325 5.99992Z" fill="#DD781C"/>
</svg>
