<svg height="512pt" viewBox="-37 0 511 512" width="512pt" xmlns="http://www.w3.org/2000/svg"><path d="m128.003906 137.480469c2.417969 0 4.84375-.871094 6.765625-2.636719.136719-.125.28125-.265625.410157-.398438 3.90625-3.902343 3.90625-10.234374 0-14.140624s-10.234376-3.90625-14.140626 0c-.011718.011718-.03125.027343-.050781.046874-3.828125 3.761719-4.007812 9.914063-.351562 13.894532 1.972656 2.148437 4.667969 3.234375 7.367187 3.234375zm0 0"/><path d="m218.503906 80c-21.84375 0-43.605468 5.242188-62.933594 15.15625-4.914062 2.519531-6.851562 8.546875-4.332031 13.460938 2.519531 4.914062 8.546875 6.855468 13.460938 4.335937 16.753906-8.59375 34.855469-12.953125 53.804687-12.953125 65.0625 0 118 52.9375 118 118.003906 0 24.003906-7.167968 47.101563-20.722656 66.800782-2.113281 3.074218-4.277344 6.1875-6.460938 9.335937-22.683593 32.671875-48.128906 69.335937-52.230468 105.859375h-77.175782c-4.101562-36.523438-29.546874-73.1875-52.230468-105.859375-2.1875-3.148437-4.347656-6.261719-6.464844-9.335937-13.550781-19.699219-20.71875-42.796876-20.71875-66.800782 0-21.96875 6.078125-43.402344 17.570312-61.984375 2.90625-4.695312 1.453126-10.855469-3.242187-13.761719-4.699219-2.910156-10.859375-1.453124-13.765625 3.242188-13.453125 21.742188-20.5625 46.8125-20.5625 72.503906 0 28.066406 8.382812 55.089844 24.246094 78.140625 2.128906 3.097657 4.308594 6.230469 6.511718 9.402344 21.40625 30.828125 45.445313 65.46875 48.824219 97.082031-6.886719 3.71875-11.578125 11.007813-11.578125 19.371094v36c0 8.53125 4.882813 15.9375 11.996094 19.585938v8.414062c0 14.335938 11.664062 26 26 26h64.003906c14.335938 0 26-11.664062 26-26v-8.414062c7.113282-3.648438 11.996094-11.054688 11.996094-19.585938v-36c0-8.363281-4.691406-15.652344-11.578125-19.371094 3.382813-31.613281 27.421875-66.253906 48.824219-97.082031 2.203125-3.171875 4.382812-6.308594 6.511718-9.402344 15.863282-23.050781 24.246094-50.070312 24.246094-78.140625 0-76.09375-61.90625-138.003906-138-138.003906zm49.996094 342v8h-31.03125c-5.523438 0-10 4.476562-10 10 0 5.519531 4.476562 10 10 10h31.03125v8c0 1.085938-.914062 2-1.996094 2h-96.003906c-1.082031 0-1.996094-.914062-1.996094-2v-36c0-1.085938.914063-2 1.996094-2h96.003906c1.082032 0 1.996094.914062 1.996094 2zm-17.996094 70h-64.003906c-3.25 0-6-2.746094-6-6v-6h76.003906v6c0 3.253906-2.75 6-6 6zm0 0"/><path d="m218.503906 51.679688c5.519532 0 10-4.480469 10-10v-31.679688c0-5.523438-4.480468-10-10-10-5.523437 0-10 4.476562-10 10v31.679688c0 5.519531 4.476563 10 10 10zm0 0"/><path d="m86.75 100.394531c1.953125 1.949219 4.511719 2.929688 7.070312 2.929688 2.558594 0 5.121094-.980469 7.074219-2.929688 3.902344-3.90625 3.902344-10.238281 0-14.144531l-22.402343-22.398438c-3.90625-3.902343-10.234376-3.902343-14.140626 0-3.90625 3.90625-3.90625 10.238282 0 14.144532zm0 0"/><path d="m42.179688 208.003906h-31.679688c-5.523438 0-10 4.476563-10 10 0 5.519532 4.476562 10 10 10h31.679688c5.519531 0 10-4.480468 10-10 0-5.523437-4.480469-10-10-10zm0 0"/><path d="m86.75 335.613281-22.398438 22.398438c-3.90625 3.902343-3.90625 10.234375 0 14.140625 1.953126 1.953125 4.511719 2.929687 7.070313 2.929687s5.117187-.976562 7.070313-2.929687l22.402343-22.398438c3.902344-3.902344 3.902344-10.234375 0-14.140625-3.90625-3.90625-10.238281-3.90625-14.144531 0zm0 0"/><path d="m350.253906 335.613281c-3.90625-3.90625-10.234375-3.90625-14.144531 0-3.902344 3.902344-3.902344 10.234375 0 14.140625l22.398437 22.398438c1.953126 1.953125 4.515626 2.929687 7.074219 2.929687 2.558594 0 5.117188-.976562 7.070313-2.929687 3.902344-3.902344 3.902344-10.234375 0-14.140625zm0 0"/><path d="m426.503906 208.003906h-31.675781c-5.523437 0-10 4.476563-10 10 0 5.519532 4.476563 10 10 10h31.675781c5.523438 0 10-4.480468 10-10 0-5.523437-4.476562-10-10-10zm0 0"/><path d="m358.511719 63.851562-22.402344 22.398438c-3.902344 3.90625-3.902344 10.238281 0 14.144531 1.953125 1.949219 4.511719 2.929688 7.074219 2.929688 2.558594 0 5.117187-.980469 7.070312-2.929688l22.398438-22.398437c3.902344-3.90625 3.902344-10.238282 0-14.144532-3.90625-3.90625-10.234375-3.90625-14.140625 0zm0 0"/><path d="m208.5 450h.234375c5.523437 0 10-4.476562 10-10 0-5.519531-4.476563-10-10-10h-.234375c-5.523438 0-10 4.480469-10 10 0 5.523438 4.476562 10 10 10zm0 0"/><path d="m225.570312 277.929688c-3.90625-3.90625-10.238281-3.90625-14.144531 0-3.902343 3.90625-3.902343 10.238281 0 14.140624 3.90625 3.90625 10.238281 3.90625 14.144531 0 3.90625-3.902343 3.90625-10.234374 0-14.140624zm0 0"/><path d="m275.070312 238.433594c2.558594 0 5.117188-.976563 7.070313-2.929688 3.90625-3.90625 3.90625-10.238281 0-14.144531-35.089844-35.089844-92.1875-35.089844-127.277344 0-3.90625 3.90625-3.90625 10.238281 0 14.144531 3.90625 3.902344 10.234375 3.902344 14.140625 0 27.292969-27.292968 71.703125-27.292968 98.996094 0 1.953125 1.953125 4.511719 2.929688 7.070312 2.929688zm0 0"/><path d="m246.785156 266.71875c2.5625 0 5.117188-.980469 7.070313-2.929688 3.90625-3.90625 3.90625-10.238281 0-14.144531-19.496094-19.492187-51.214844-19.492187-70.710938 0-3.902343 3.90625-3.902343 10.238281 0 14.144531 3.90625 3.902344 10.238281 3.902344 14.144531 0 11.695313-11.699218 30.730469-11.699218 42.425782 0 1.953125 1.949219 4.511718 2.929688 7.070312 2.929688zm0 0"/></svg>